<svg width="24" height="25" viewBox="0 0 24 25" fill="none" xmlns="http://www.w3.org/2000/svg">
<g id="user-circle">
<path id="Vector" d="M12.0063 22.6969C17.5292 22.6969 22.0063 18.2198 22.0063 12.6969C22.0063 7.17407 17.5292 2.69691 12.0063 2.69691C6.4835 2.69691 2.00635 7.17407 2.00635 12.6969C2.00635 18.2198 6.4835 22.6969 12.0063 22.6969Z" stroke="#737373" stroke-width="1.5"/>
<path id="Vector_2" d="M7.50635 17.6969C9.83805 15.2547 14.1495 15.1397 16.5063 17.6969M14.5014 10.1969C14.5014 11.5776 13.3805 12.6969 11.9978 12.6969C10.6152 12.6969 9.49432 11.5776 9.49432 10.1969C9.49432 8.8162 10.6152 7.69691 11.9978 7.69691C13.3805 7.69691 14.5014 8.8162 14.5014 10.1969Z" stroke="#737373" stroke-width="1.5" stroke-linecap="round"/>
</g>
</svg>
