<svg width="24" height="25" viewBox="0 0 24 25" fill="none" xmlns="http://www.w3.org/2000/svg">
<g id="calendar-03">
<path id="Vector" d="M18 2.69691V4.69691M6 2.69691V4.69691" stroke="#737373" stroke-width="1.5" stroke-linecap="round" stroke-linejoin="round"/>
<path id="Vector_2" d="M11.9955 13.6969H12.0045M11.9955 17.6969H12.0045M15.991 13.6969H16M8 13.6969H8.00897M8 17.6969H8.00897" stroke="#737373" stroke-width="2" stroke-linecap="round" stroke-linejoin="round"/>
<path id="Vector_3" d="M3.5 8.69691H20.5" stroke="#737373" stroke-width="1.5" stroke-linecap="round" stroke-linejoin="round"/>
<path id="Vector_4" d="M2.5 12.9401C2.5 8.58285 2.5 6.40419 3.75212 5.05055C5.00424 3.69691 7.01949 3.69691 11.05 3.69691H12.95C16.9805 3.69691 18.9958 3.69691 20.2479 5.05055C21.5 6.40419 21.5 8.58285 21.5 12.9401V13.4537C21.5 17.811 21.5 19.9896 20.2479 21.3433C18.9958 22.6969 16.9805 22.6969 12.95 22.6969H11.05C7.01949 22.6969 5.00424 22.6969 3.75212 21.3433C2.5 19.9896 2.5 17.811 2.5 13.4537V12.9401Z" stroke="#737373" stroke-width="1.5" stroke-linecap="round" stroke-linejoin="round"/>
<path id="Vector_5" d="M3 8.69691H21" stroke="#737373" stroke-width="1.5" stroke-linecap="round" stroke-linejoin="round"/>
</g>
</svg>
